<svg width="28" height="10" viewBox="0 0 28 10" fill="none" xmlns="http://www.w3.org/2000/svg">
<path d="M28 0.195306V9.80463C28 9.91251 27.7551 9.99997 27.4531 9.99997C27.151 9.99997 26.9061 9.91251 26.9061 9.80463V1.02258L14.4892 9.89197C14.3757 9.97302 14.1212 10.0155 13.8745 9.99478C13.6278 9.97402 13.4534 9.89529 13.4534 9.80474V1.02258L1.03613 9.89197C0.940287 9.96044 0.74705 9.99997 0.546701 9.99997C0.464459 9.99997 0.380981 9.99334 0.302449 9.97932C0.0322262 9.93106 -0.0772234 9.8138 0.0578881 9.71729L13.5109 0.107962C13.6244 0.026913 13.8788 -0.0155993 14.1256 0.0052704C14.3723 0.0260296 14.5467 0.10476 14.5467 0.195306V8.97735L26.9639 0.107962C27.0774 0.026913 27.3319 -0.0155993 27.5786 0.0052704C27.8256 0.0260296 28 0.10465 28 0.195306Z" fill="white"/>
</svg>
