<svg width="28" height="10" viewBox="0 0 28 10" fill="none" xmlns="http://www.w3.org/2000/svg">
<path d="M27.5489 4.46742C27.2222 4.38112 26.8862 4.56563 26.7977 4.88408C26.4465 6.13404 25.341 8.73813 24.1653 8.80956C23.7439 8.8423 22.6048 8.49409 21.0535 4.81563C19.6427 1.47049 18.299 -0.0294713 16.8271 0.0865968C14.8116 0.250283 13.7916 3.57161 13.5076 4.68468C13.4862 4.72039 13.471 4.76206 13.4587 4.80372C13.1045 6.05369 11.9868 8.66075 10.8019 8.7292C10.3775 8.75599 9.22619 8.41671 7.66266 4.7323C6.24264 1.39013 4.88982 -0.109826 3.40873 0.00624185C1.21917 0.184808 0.196147 4.05374 0.0159739 4.82753C-0.0603708 5.14895 0.144233 5.46739 0.474042 5.5418C0.803851 5.6162 1.13061 5.4168 1.20695 5.09538C1.57951 3.524 2.54146 1.27109 3.51256 1.19371C3.89734 1.16395 4.96311 1.48834 6.53581 5.18764C7.92528 8.46135 9.34529 10.003 10.8813 9.91667C13.0251 9.7887 14.2527 6.36618 14.5703 5.3543C14.607 5.30073 14.6314 5.23823 14.6467 5.17276C15.007 3.64602 15.9812 1.34846 16.9309 1.27109C17.3126 1.2443 18.3662 1.5687 19.9236 5.26502C21.2642 8.44945 22.6384 10 24.1134 10C24.1562 10 24.1989 10 24.2417 9.99702C26.6022 9.85715 27.8451 5.67274 27.9795 5.19657C28.065 4.8811 27.8757 4.55373 27.5489 4.46742Z" fill="white"/>
</svg>
