<svg width="32" height="12" viewBox="0 0 32 12" fill="none" xmlns="http://www.w3.org/2000/svg">
<path d="M0.290146 11.8123C0.610162 12.0601 1.06837 11.9925 1.30838 11.6621L8.27962 2.06055L15.2545 11.6621C15.36 11.8047 15.5091 11.9061 15.6763 11.9437L15.84 11.9812C16.12 12.0451 16.4109 11.9362 16.5818 11.6996L23.6367 1.98545L30.6916 11.6996C30.8334 11.8949 31.0516 12 31.2735 12C31.4262 12 31.5789 11.9512 31.7099 11.8498C32.0299 11.602 32.0953 11.1288 31.8553 10.7984L24.2186 0.28444C23.9422 -0.0948134 23.3313 -0.0948134 23.0549 0.28444L15.9309 10.0925L8.86147 0.35954C8.58509 -0.0197134 7.97416 -0.0197134 7.69778 0.35954L0.144685 10.7609C-0.095327 11.0913 -0.0298692 11.5644 0.290146 11.8123Z" fill="white"/>
</svg>
