<svg width="31" height="30" viewBox="0 0 31 30" fill="none" xmlns="http://www.w3.org/2000/svg">
<path d="M29.8287 25.4497H20.7843C20.3026 22.5429 19.7932 19.5837 19.0246 17.3473C18.0434 14.4918 16.7111 13.1038 14.9514 13.1038C13.4674 13.1038 12.1142 14.4359 11.0379 16.9558C10.1034 19.1441 9.42501 22.0722 9.06725 25.4497H4.96524V0.586007C4.96524 0.262362 4.70288 0 4.37924 0C4.0556 0 3.79324 0.262362 3.79324 0.586007V25.4497H1.00104C0.677398 25.4497 0.415039 25.7121 0.415039 26.0358C0.415039 26.3594 0.677398 26.6218 1.00104 26.6218H3.79324V29.414C3.79324 29.7376 4.0556 30 4.37924 30C4.70288 30 4.96524 29.7376 4.96524 29.414V26.6218H20.2854H20.2867H20.2881H29.829C30.1527 26.6218 30.415 26.3594 30.415 26.0358C30.4147 25.7121 30.1524 25.4497 29.8287 25.4497ZM12.1155 17.4162C12.9678 15.4207 14.0014 14.2759 14.9514 14.2759C16.1483 14.2759 17.1179 15.4051 17.9162 17.7283C18.6374 19.8269 19.132 22.6529 19.5964 25.4497H10.2455C10.5924 22.2756 11.2506 19.4416 12.1155 17.4162Z" fill="white"/>
</svg>
