<svg width="31" height="30" viewBox="0 0 31 30" fill="none" xmlns="http://www.w3.org/2000/svg">
<path d="M30.415 26.0358C30.415 26.3594 30.1527 26.6218 29.829 26.6218H4.96529V29.414C4.96529 29.7376 4.70293 30 4.37928 30C4.05564 30 3.79328 29.7376 3.79328 29.414V26.6218H1.00105C0.677401 26.6218 0.415039 26.3594 0.415039 26.0358C0.415039 25.7121 0.677401 25.4497 1.00105 25.4497H3.79328V0.586007C3.79328 0.262362 4.05564 0 4.37928 0C4.70293 0 4.96529 0.262362 4.96529 0.586007V24.9691L9.47679 18.156C10.4663 16.6616 12.3137 15.4909 13.6829 15.4909H26.3312C26.6549 15.4909 26.9172 15.7533 26.9172 16.0769C26.9172 16.4006 26.6549 16.6629 26.3312 16.6629H13.6825C12.7175 16.6629 11.2086 17.663 10.4537 18.8033L6.0525 25.4497H29.829C30.1527 25.4497 30.415 25.7121 30.415 26.0358Z" fill="white"/>
</svg>
