<svg width="31" height="30" viewBox="0 0 31 30" fill="none" xmlns="http://www.w3.org/2000/svg">
<path d="M29.829 25.4497H26.0635L21.2337 18.156C20.2442 16.6616 18.3968 15.4909 17.0276 15.4909H4.96529V0.586007C4.96529 0.262362 4.70293 0 4.37928 0C4.05564 0 3.79328 0.262362 3.79328 0.586007V25.4497H1.00105C0.677401 25.4497 0.415039 25.7121 0.415039 26.0358C0.415039 26.3594 0.677401 26.6218 1.00105 26.6218H3.79328V29.414C3.79328 29.7376 4.05564 30 4.37928 30C4.70293 30 4.96529 29.7376 4.96529 29.414V26.6218H29.829C30.1527 26.6218 30.415 26.3594 30.415 26.0358C30.415 25.7121 30.1527 25.4497 29.829 25.4497ZM4.96529 16.6626H17.0276C17.9926 16.6626 19.5015 17.6627 20.2565 18.8029L24.658 25.4497H4.96529V16.6626Z" fill="white"/>
</svg>
