<svg width="36" height="35" viewBox="0 0 36 35" fill="none" xmlns="http://www.w3.org/2000/svg">
<path id="Union" fill-rule="evenodd" clip-rule="evenodd" d="M33.1129 21.0213C31.1681 29.3579 22.8335 34.5395 14.4969 32.5948C6.1603 30.65 0.978675 22.3154 2.92341 13.9788C4.86815 5.64221 13.2028 0.460592 21.5394 2.40533C29.876 4.35006 35.0576 12.6847 33.1129 21.0213ZM14.0425 34.5425C23.4548 36.7382 32.8649 30.8879 35.0606 21.4757C37.2562 12.0634 31.406 2.65329 21.9937 0.45762C12.5815 -1.73805 3.17137 4.11217 0.975703 13.5244C-1.21997 22.9367 4.63025 32.3468 14.0425 34.5425ZM13.4905 30.3063C13.365 30.8442 13.6993 31.3819 14.2371 31.5073C14.775 31.6328 15.3127 31.2985 15.4382 30.7607L17.7099 21.0221C17.8354 20.4843 17.5011 19.9466 16.9633 19.8211C16.4254 19.6956 15.8877 20.0299 15.7622 20.5678L13.4905 30.3063Z" fill="white"/>
</svg>
